<?xml version="1.0" encoding="UTF-8" standalone="no"?><svg xmlns="http://www.w3.org/2000/svg" xmlns:xlink="http://www.w3.org/1999/xlink" contentScriptType="application/ecmascript" contentStyleType="text/css" height="482px" preserveAspectRatio="none" style="width:531px;height:482px;" version="1.1" viewBox="0 0 531 482" width="531px" zoomAndPan="magnify"><defs/><g><polygon fill="#90EE90" points="311.7691,270,259.8076,300,207.8461,270,207.8461,210,259.8076,180,311.7691,210" style="stroke: #90EE90; stroke-width: 1.0;"/><text fill="#000000" font-family="sans-serif" font-size="14" font-weight="bold" lengthAdjust="spacingAndGlyphs" textLength="78" x="220.8076" y="245.291">LightGreen</text><polygon fill="#98FB98" points="415.6922,270,363.7307,300,311.7691,270,311.7691,210,363.7307,180,415.6922,210" style="stroke: #98FB98; stroke-width: 1.0;"/><text fill="#000000" font-family="sans-serif" font-size="14" font-weight="bold" lengthAdjust="spacingAndGlyphs" textLength="71" x="328.2307" y="245.291">PaleGreen</text><polygon fill="#97FF97" points="363.7307,360,311.7691,390,259.8076,360,259.8076,300,311.7691,270,363.7307,300" style="stroke: #97FF97; stroke-width: 1.0;"/><text fill="#000000" font-family="sans-serif" font-size="14" font-weight="bold" lengthAdjust="spacingAndGlyphs" textLength="71" x="276.2691" y="335.291">PHYSICAL</text><polygon fill="#AFEEEE" points="259.8076,360,207.8461,390,155.8846,360,155.8846,300,207.8461,270,259.8076,300" style="stroke: #AFEEEE; stroke-width: 1.0;"/><text fill="#000000" font-family="sans-serif" font-size="14" font-weight="bold" lengthAdjust="spacingAndGlyphs" textLength="103" x="156.3461" y="335.291">PaleTurquoise</text><polygon fill="#7FFFD4" points="207.8461,270,155.8846,300,103.923,270,103.923,210,155.8846,180,207.8461,210" style="stroke: #7FFFD4; stroke-width: 1.0;"/><text fill="#000000" font-family="sans-serif" font-size="14" font-weight="bold" lengthAdjust="spacingAndGlyphs" textLength="86" x="112.8846" y="245.291">Aquamarine</text><polygon fill="#B0E0E6" points="259.8076,180,207.8461,210,155.8846,180,155.8846,120,207.8461,90,259.8076,120" style="stroke: #B0E0E6; stroke-width: 1.0;"/><text fill="#000000" font-family="sans-serif" font-size="14" font-weight="bold" lengthAdjust="spacingAndGlyphs" textLength="84" x="165.8461" y="155.291">PowderBlue</text><polygon fill="#C2F0FF" points="363.7307,180,311.7691,210,259.8076,180,259.8076,120,311.7691,90,363.7307,120" style="stroke: #C2F0FF; stroke-width: 1.0;"/><text fill="#000000" font-family="sans-serif" font-size="14" font-weight="bold" lengthAdjust="spacingAndGlyphs" textLength="99" x="262.2691" y="155.291">APPLICATION</text><polygon fill="#ADFF2F" points="519.6152,270,467.6537,300,415.6922,270,415.6922,210,467.6537,180,519.6152,210" style="stroke: #ADFF2F; stroke-width: 1.0;"/><text fill="#000000" font-family="sans-serif" font-size="14" font-weight="bold" lengthAdjust="spacingAndGlyphs" textLength="90" x="422.6537" y="245.291">GreenYellow</text><polygon fill="#8FBC8F" points="467.6537,360,415.6922,390,363.7307,360,363.7307,300,415.6922,270,467.6537,300" style="stroke: #8FBC8F; stroke-width: 1.0;"/><text fill="#000000" font-family="sans-serif" font-size="14" font-weight="bold" lengthAdjust="spacingAndGlyphs" textLength="99" x="366.1922" y="335.291">DarkSeaGreen</text><polygon fill="#7CFC00" points="415.6922,450,363.7307,480,311.7691,450,311.7691,390,363.7307,360,415.6922,390" style="stroke: #7CFC00; stroke-width: 1.0;"/><text fill="#000000" font-family="sans-serif" font-size="14" font-weight="bold" lengthAdjust="spacingAndGlyphs" textLength="78" x="324.7307" y="425.291">LawnGreen</text><polygon fill="#7FFF00" points="311.7691,450,259.8076,480,207.8461,450,207.8461,390,259.8076,360,311.7691,390" style="stroke: #7FFF00; stroke-width: 1.0;"/><text fill="#000000" font-family="sans-serif" font-size="14" font-weight="bold" lengthAdjust="spacingAndGlyphs" textLength="78" x="220.8076" y="425.291">Chartreuse</text><polygon fill="#ADD8E6" points="207.8461,450,155.8846,480,103.923,450,103.923,390,155.8846,360,207.8461,390" style="stroke: #ADD8E6; stroke-width: 1.0;"/><text fill="#000000" font-family="sans-serif" font-size="14" font-weight="bold" lengthAdjust="spacingAndGlyphs" textLength="68" x="121.8846" y="425.291">LightBlue</text><polygon fill="#87CEEB" points="155.8846,360,103.923,390,51.9615,360,51.9615,300,103.923,270,155.8846,300" style="stroke: #87CEEB; stroke-width: 1.0;"/><text fill="#000000" font-family="sans-serif" font-size="14" font-weight="bold" lengthAdjust="spacingAndGlyphs" textLength="56" x="75.923" y="335.291">SkyBlue</text><polygon fill="#9ACD32" points="103.923,270,51.9615,300,-0,270,-0,210,51.9615,180,103.923,210" style="stroke: #9ACD32; stroke-width: 1.0;"/><text fill="#000000" font-family="sans-serif" font-size="14" font-weight="bold" lengthAdjust="spacingAndGlyphs" textLength="90" x="6.9615" y="245.291">YellowGreen</text><polygon fill="#87CEFA" points="155.8846,180,103.923,210,51.9615,180,51.9615,120,103.923,90,155.8846,120" style="stroke: #87CEFA; stroke-width: 1.0;"/><text fill="#000000" font-family="sans-serif" font-size="14" font-weight="bold" lengthAdjust="spacingAndGlyphs" textLength="93" x="57.423" y="155.291">LightSkyBlue</text><polygon fill="#C9FFC9" points="207.8461,90,155.8846,120,103.923,90,103.923,30,155.8846,0,207.8461,30" style="stroke: #C9FFC9; stroke-width: 1.0;"/><text fill="#000000" font-family="sans-serif" font-size="14" font-weight="bold" lengthAdjust="spacingAndGlyphs" textLength="102" x="104.8846" y="65.291">TECHNOLOGY</text><polygon fill="#F0E68C" points="311.7691,90,259.8076,120,207.8461,90,207.8461,30,259.8076,0,311.7691,30" style="stroke: #F0E68C; stroke-width: 1.0;"/><text fill="#000000" font-family="sans-serif" font-size="14" font-weight="bold" lengthAdjust="spacingAndGlyphs" textLength="41" x="239.3076" y="65.291">Khaki</text><polygon fill="#EEE8AA" points="415.6922,90,363.7307,120,311.7691,90,311.7691,30,363.7307,0,415.6922,30" style="stroke: #EEE8AA; stroke-width: 1.0;"/><text fill="#000000" font-family="sans-serif" font-size="14" font-weight="bold" lengthAdjust="spacingAndGlyphs" textLength="30" x="348.7307" y="57.0469">Pale</text><text fill="#000000" font-family="sans-serif" font-size="14" font-weight="bold" lengthAdjust="spacingAndGlyphs" textLength="78" x="324.7307" y="73.5352">GoldenRod</text><polygon fill="#66CDAA" points="467.6537,180,415.6922,210,363.7307,180,363.7307,120,415.6922,90,467.6537,120" style="stroke: #66CDAA; stroke-width: 1.0;"/><text fill="#000000" font-family="sans-serif" font-size="14" font-weight="bold" lengthAdjust="spacingAndGlyphs" textLength="58" x="386.6922" y="147.0469">Medium</text><text fill="#000000" font-family="sans-serif" font-size="14" font-weight="bold" lengthAdjust="spacingAndGlyphs" textLength="85" x="373.1922" y="163.5352">AquaMarine</text><!--MD5=[2216885199dddd07324b9b971f72f1ab]
@startuml
colors LightGreen
@enduml

PlantUML version 1.2020.09(Sun May 10 12:51:06 CEST 2020)
(GPL source distribution)
Java Runtime: Java(TM) SE Runtime Environment
JVM: Java HotSpot(TM) 64-Bit Server VM
Java Version: 11.0.6+8-LTS
Operating System: Mac OS X
Default Encoding: UTF-8
Language: en
Country: GB
--></g></svg>