<?xml version="1.0" encoding="UTF-8" standalone="no"?><svg xmlns="http://www.w3.org/2000/svg" xmlns:xlink="http://www.w3.org/1999/xlink" contentScriptType="application/ecmascript" contentStyleType="text/css" height="482px" preserveAspectRatio="none" style="width:531px;height:482px;" version="1.1" viewBox="0 0 531 482" width="531px" zoomAndPan="magnify"><defs/><g><polygon fill="#ADD8E6" points="311.7691,270,259.8076,300,207.8461,270,207.8461,210,259.8076,180,311.7691,210" style="stroke: #ADD8E6; stroke-width: 1.0;"/><text fill="#000000" font-family="sans-serif" font-size="14" font-weight="bold" lengthAdjust="spacingAndGlyphs" textLength="68" x="225.8076" y="245.291">LightBlue</text><polygon fill="#B0E0E6" points="415.6922,270,363.7307,300,311.7691,270,311.7691,210,363.7307,180,415.6922,210" style="stroke: #B0E0E6; stroke-width: 1.0;"/><text fill="#000000" font-family="sans-serif" font-size="14" font-weight="bold" lengthAdjust="spacingAndGlyphs" textLength="84" x="321.7307" y="245.291">PowderBlue</text><polygon fill="#B0C4DE" points="363.7307,360,311.7691,390,259.8076,360,259.8076,300,311.7691,270,363.7307,300" style="stroke: #B0C4DE; stroke-width: 1.0;"/><text fill="#000000" font-family="sans-serif" font-size="14" font-weight="bold" lengthAdjust="spacingAndGlyphs" textLength="103" x="260.2691" y="335.291">LightSteelBlue</text><polygon fill="#AFEEEE" points="259.8076,360,207.8461,390,155.8846,360,155.8846,300,207.8461,270,259.8076,300" style="stroke: #AFEEEE; stroke-width: 1.0;"/><text fill="#000000" font-family="sans-serif" font-size="14" font-weight="bold" lengthAdjust="spacingAndGlyphs" textLength="103" x="156.3461" y="335.291">PaleTurquoise</text><polygon fill="#D3D3D3" points="207.8461,270,155.8846,300,103.923,270,103.923,210,155.8846,180,207.8461,210" style="stroke: #D3D3D3; stroke-width: 1.0;"/><text fill="#000000" font-family="sans-serif" font-size="14" font-weight="bold" lengthAdjust="spacingAndGlyphs" textLength="69" x="121.3846" y="245.291">LightGrey</text><polygon fill="#DCDCDC" points="259.8076,180,207.8461,210,155.8846,180,155.8846,120,207.8461,90,259.8076,120" style="stroke: #DCDCDC; stroke-width: 1.0;"/><text fill="#000000" font-family="sans-serif" font-size="14" font-weight="bold" lengthAdjust="spacingAndGlyphs" textLength="73" x="171.3461" y="155.291">Gainsboro</text><polygon fill="#87CEEB" points="363.7307,180,311.7691,210,259.8076,180,259.8076,120,311.7691,90,363.7307,120" style="stroke: #87CEEB; stroke-width: 1.0;"/><text fill="#000000" font-family="sans-serif" font-size="14" font-weight="bold" lengthAdjust="spacingAndGlyphs" textLength="56" x="283.7691" y="155.291">SkyBlue</text><polygon fill="#87CEFA" points="519.6152,270,467.6537,300,415.6922,270,415.6922,210,467.6537,180,519.6152,210" style="stroke: #87CEFA; stroke-width: 1.0;"/><text fill="#000000" font-family="sans-serif" font-size="14" font-weight="bold" lengthAdjust="spacingAndGlyphs" textLength="93" x="421.1537" y="245.291">LightSkyBlue</text><polygon fill="#C2F0FF" points="467.6537,360,415.6922,390,363.7307,360,363.7307,300,415.6922,270,467.6537,300" style="stroke: #C2F0FF; stroke-width: 1.0;"/><text fill="#000000" font-family="sans-serif" font-size="14" font-weight="bold" lengthAdjust="spacingAndGlyphs" textLength="99" x="366.1922" y="335.291">APPLICATION</text><polygon fill="#C0C0C0" points="415.6922,450,363.7307,480,311.7691,450,311.7691,390,363.7307,360,415.6922,390" style="stroke: #C0C0C0; stroke-width: 1.0;"/><text fill="#000000" font-family="sans-serif" font-size="14" font-weight="bold" lengthAdjust="spacingAndGlyphs" textLength="40" x="343.7307" y="425.291">Silver</text><polygon fill="#E6E6FA" points="311.7691,450,259.8076,480,207.8461,450,207.8461,390,259.8076,360,311.7691,390" style="stroke: #E6E6FA; stroke-width: 1.0;"/><text fill="#000000" font-family="sans-serif" font-size="14" font-weight="bold" lengthAdjust="spacingAndGlyphs" textLength="64" x="227.8076" y="425.291">Lavender</text><polygon fill="#D8BFD8" points="207.8461,450,155.8846,480,103.923,450,103.923,390,155.8846,360,207.8461,390" style="stroke: #D8BFD8; stroke-width: 1.0;"/><text fill="#000000" font-family="sans-serif" font-size="14" font-weight="bold" lengthAdjust="spacingAndGlyphs" textLength="51" x="130.3846" y="425.291">Thistle</text><polygon fill="#FFE0E0" points="155.8846,360,103.923,390,51.9615,360,51.9615,300,103.923,270,155.8846,300" style="stroke: #FFE0E0; stroke-width: 1.0;"/><text fill="#000000" font-family="sans-serif" font-size="14" font-weight="bold" lengthAdjust="spacingAndGlyphs" textLength="64" x="71.923" y="327.0469">IMPLEME</text><text fill="#000000" font-family="sans-serif" font-size="14" font-weight="bold" lengthAdjust="spacingAndGlyphs" textLength="69" x="69.423" y="343.5352">NTATION</text><polygon fill="#FFDAB9" points="103.923,270,51.9615,300,-0,270,-0,210,51.9615,180,103.923,210" style="stroke: #FFDAB9; stroke-width: 1.0;"/><text fill="#000000" font-family="sans-serif" font-size="14" font-weight="bold" lengthAdjust="spacingAndGlyphs" textLength="71" x="16.4615" y="245.291">PeachPuff</text><polygon fill="#F5DEB3" points="155.8846,180,103.923,210,51.9615,180,51.9615,120,103.923,90,155.8846,120" style="stroke: #F5DEB3; stroke-width: 1.0;"/><text fill="#000000" font-family="sans-serif" font-size="14" font-weight="bold" lengthAdjust="spacingAndGlyphs" textLength="44" x="81.923" y="155.291">Wheat</text><polygon fill="#90EE90" points="207.8461,90,155.8846,120,103.923,90,103.923,30,155.8846,0,207.8461,30" style="stroke: #90EE90; stroke-width: 1.0;"/><text fill="#000000" font-family="sans-serif" font-size="14" font-weight="bold" lengthAdjust="spacingAndGlyphs" textLength="78" x="116.8846" y="65.291">LightGreen</text><polygon fill="#9ACD32" points="311.7691,90,259.8076,120,207.8461,90,207.8461,30,259.8076,0,311.7691,30" style="stroke: #9ACD32; stroke-width: 1.0;"/><text fill="#000000" font-family="sans-serif" font-size="14" font-weight="bold" lengthAdjust="spacingAndGlyphs" textLength="90" x="214.8076" y="65.291">YellowGreen</text><polygon fill="#FFE4E1" points="415.6922,90,363.7307,120,311.7691,90,311.7691,30,363.7307,0,415.6922,30" style="stroke: #FFE4E1; stroke-width: 1.0;"/><text fill="#000000" font-family="sans-serif" font-size="14" font-weight="bold" lengthAdjust="spacingAndGlyphs" textLength="75" x="326.2307" y="65.291">MistyRose</text><polygon fill="#66CDAA" points="467.6537,180,415.6922,210,363.7307,180,363.7307,120,415.6922,90,467.6537,120" style="stroke: #66CDAA; stroke-width: 1.0;"/><text fill="#000000" font-family="sans-serif" font-size="14" font-weight="bold" lengthAdjust="spacingAndGlyphs" textLength="58" x="386.6922" y="147.0469">Medium</text><text fill="#000000" font-family="sans-serif" font-size="14" font-weight="bold" lengthAdjust="spacingAndGlyphs" textLength="85" x="373.1922" y="163.5352">AquaMarine</text><!--MD5=[c4d55647c86ee90652f957d99368a4cc]
@startuml
colors LightBlue
@enduml

PlantUML version 1.2020.15(Sun Jun 28 13:39:45 CEST 2020)
(GPL source distribution)
Java Runtime: Java(TM) SE Runtime Environment
JVM: Java HotSpot(TM) 64-Bit Server VM
Default Encoding: UTF-8
Language: en
Country: GB
--></g></svg>