<?xml version="1.0" encoding="UTF-8" standalone="no"?><svg xmlns="http://www.w3.org/2000/svg" xmlns:xlink="http://www.w3.org/1999/xlink" contentScriptType="application/ecmascript" contentStyleType="text/css" height="252px" preserveAspectRatio="none" style="width:128px;height:252px;" version="1.1" viewBox="0 0 128 252" width="128px" zoomAndPan="magnify"><defs><filter height="300%" id="f1sot5so01sgmi" width="300%" x="-1" y="-1"><feGaussianBlur result="blurOut" stdDeviation="2.0"/><feColorMatrix in="blurOut" result="blurOut2" type="matrix" values="0 0 0 0 0 0 0 0 0 0 0 0 0 0 0 0 0 0 .4 0"/><feOffset dx="4.0" dy="4.0" in="blurOut2" result="blurOut3"/><feBlend in="SourceGraphic" in2="blurOut3" mode="normal"/></filter></defs><g><line style="stroke: #A80036; stroke-width: 1.0; stroke-dasharray: 5.0,5.0;" x1="30" x2="30" y1="86.4883" y2="165.1094"/><line style="stroke: #A80036; stroke-width: 1.0; stroke-dasharray: 5.0,5.0;" x1="102.5" x2="102.5" y1="86.4883" y2="165.1094"/><rect fill="#FEFECE" filter="url(#f1sot5so01sgmi)" height="30.4883" style="stroke: #A80036; stroke-width: 1.5;" width="40" x="8" y="51"/><text fill="#000000" font-family="sans-serif" font-size="14" lengthAdjust="spacingAndGlyphs" textLength="26" x="15" y="71.5352">Bob</text><rect fill="#FEFECE" filter="url(#f1sot5so01sgmi)" height="30.4883" style="stroke: #A80036; stroke-width: 1.5;" width="40" x="8" y="164.1094"/><text fill="#000000" font-family="sans-serif" font-size="14" lengthAdjust="spacingAndGlyphs" textLength="26" x="15" y="184.6445">Bob</text><text fill="#000000" font-family="sans-serif" font-size="14" lengthAdjust="spacingAndGlyphs" textLength="33" x="83.5" y="83.5352">Alice</text><ellipse cx="103" cy="13" fill="#FEFECE" filter="url(#f1sot5so01sgmi)" rx="8" ry="8" style="stroke: #A80036; stroke-width: 2.0;"/><path d="M103,21 L103,48 M90,29 L116,29 M103,48 L90,63 M103,48 L116,63 " fill="none" filter="url(#f1sot5so01sgmi)" style="stroke: #A80036; stroke-width: 2.0;"/><text fill="#000000" font-family="sans-serif" font-size="14" lengthAdjust="spacingAndGlyphs" textLength="33" x="83.5" y="177.6445">Alice</text><ellipse cx="103" cy="190.5977" fill="#FEFECE" filter="url(#f1sot5so01sgmi)" rx="8" ry="8" style="stroke: #A80036; stroke-width: 2.0;"/><path d="M103,198.5977 L103,225.5977 M90,206.5977 L116,206.5977 M103,225.5977 L90,240.5977 M103,225.5977 L116,240.5977 " fill="none" filter="url(#f1sot5so01sgmi)" style="stroke: #A80036; stroke-width: 2.0;"/><polygon fill="#A80036" points="91,113.7988,101,117.7988,91,121.7988,95,117.7988" style="stroke: #A80036; stroke-width: 1.0;"/><line style="stroke: #A80036; stroke-width: 1.0;" x1="30" x2="97" y1="117.7988" y2="117.7988"/><text fill="#000000" font-family="sans-serif" font-size="13" lengthAdjust="spacingAndGlyphs" textLength="31" x="37" y="113.0566">hello</text><polygon fill="#A80036" points="41,143.1094,31,147.1094,41,151.1094,37,147.1094" style="stroke: #A80036; stroke-width: 1.0;"/><line style="stroke: #A80036; stroke-width: 1.0;" x1="35" x2="102" y1="147.1094" y2="147.1094"/><text fill="#000000" font-family="sans-serif" font-size="13" lengthAdjust="spacingAndGlyphs" textLength="49" x="47" y="142.3672">Is it ok?</text><!--MD5=[777340ed8e6f32d24fcd3379115ed473]
@startuml

participant Bob
actor Alice
 
Bob -> Alice : hello
Alice -> Bob : Is it ok?

@enduml

PlantUML version 1.2020.08(Sun Apr 26 16:08:22 CEST 2020)
(GPL source distribution)
Java Runtime: Java(TM) SE Runtime Environment
JVM: Java HotSpot(TM) 64-Bit Server VM
Java Version: 11.0.6+8-LTS
Operating System: Mac OS X
Default Encoding: UTF-8
Language: en
Country: GB
--></g></svg>