<?xml version="1.0" encoding="UTF-8" standalone="no"?><svg xmlns="http://www.w3.org/2000/svg" xmlns:xlink="http://www.w3.org/1999/xlink" contentScriptType="application/ecmascript" contentStyleType="text/css" height="346px" preserveAspectRatio="none" style="width:291px;height:346px;background:#FFFFFF;" version="1.1" viewBox="0 0 291 346" width="291px" zoomAndPan="magnify"><defs><filter height="300%" id="fclxrgtue1bku" width="300%" x="-1" y="-1"><feGaussianBlur result="blurOut" stdDeviation="2.0"/><feColorMatrix in="blurOut" result="blurOut2" type="matrix" values="0 0 0 0 0 0 0 0 0 0 0 0 0 0 0 0 0 0 .4 0"/><feOffset dx="4.0" dy="4.0" in="blurOut2" result="blurOut3"/><feBlend in="SourceGraphic" in2="blurOut3" mode="normal"/></filter></defs><g><!--MD5=[4272a0a1957754cd214430d460c5f4ca]
class Foo1--><rect codeLine="4" fill="#FEFECE" filter="url(#fclxrgtue1bku)" height="48" id="Foo1" style="stroke:#A80036;stroke-width:1.5;" width="60" x="118" y="13"/><ellipse cx="133" cy="29" fill="#ADD1B2" rx="11" ry="11" style="stroke:#A80036;stroke-width:1.0;"/><path d="M135.4731,35.1431 Q134.8921,35.4419 134.2529,35.5913 Q133.6138,35.7407 132.9082,35.7407 Q130.4014,35.7407 129.0815,34.0889 Q127.7617,32.437 127.7617,29.3159 Q127.7617,26.1865 129.0815,24.5347 Q130.4014,22.8828 132.9082,22.8828 Q133.6138,22.8828 134.2612,23.0322 Q134.9087,23.1816 135.4731,23.4805 L135.4731,26.2031 Q134.8423,25.6221 134.2488,25.3523 Q133.6553,25.0825 133.0244,25.0825 Q131.6797,25.0825 130.9949,26.1492 Q130.3101,27.2158 130.3101,29.3159 Q130.3101,31.4077 130.9949,32.4744 Q131.6797,33.541 133.0244,33.541 Q133.6553,33.541 134.2488,33.2712 Q134.8423,33.0015 135.4731,32.4204 Z " fill="#000000"/><text fill="#000000" font-family="sans-serif" font-size="12" lengthAdjust="spacing" textLength="28" x="147" y="33.5352">Foo1</text><line style="stroke:#A80036;stroke-width:1.5;" x1="119" x2="177" y1="45" y2="45"/><line style="stroke:#A80036;stroke-width:1.5;" x1="119" x2="177" y1="53" y2="53"/><!--MD5=[6c8c18b8d4fa3298c600fc3f82908513]
class Foo2--><rect fill="#FEFECE" filter="url(#fclxrgtue1bku)" height="48" id="Foo2" style="stroke:#A80036;stroke-width:1.5;" width="60" x="7" y="98"/><ellipse cx="22" cy="114" fill="#ADD1B2" rx="11" ry="11" style="stroke:#A80036;stroke-width:1.0;"/><path d="M24.4731,120.1431 Q23.8921,120.4419 23.2529,120.5913 Q22.6138,120.7407 21.9082,120.7407 Q19.4014,120.7407 18.0815,119.0889 Q16.7617,117.437 16.7617,114.3159 Q16.7617,111.1865 18.0815,109.5347 Q19.4014,107.8828 21.9082,107.8828 Q22.6138,107.8828 23.2612,108.0322 Q23.9087,108.1816 24.4731,108.4805 L24.4731,111.2031 Q23.8423,110.6221 23.2488,110.3523 Q22.6553,110.0825 22.0244,110.0825 Q20.6797,110.0825 19.9949,111.1492 Q19.3101,112.2158 19.3101,114.3159 Q19.3101,116.4077 19.9949,117.4744 Q20.6797,118.541 22.0244,118.541 Q22.6553,118.541 23.2488,118.2712 Q23.8423,118.0015 24.4731,117.4204 Z " fill="#000000"/><text fill="#000000" font-family="sans-serif" font-size="12" lengthAdjust="spacing" textLength="28" x="36" y="118.5352">Foo2</text><line style="stroke:#A80036;stroke-width:1.5;" x1="8" x2="66" y1="130" y2="130"/><line style="stroke:#A80036;stroke-width:1.5;" x1="8" x2="66" y1="138" y2="138"/><!--MD5=[e6aa49c8b985d0d5df1684838eeee910]
class Foo3--><rect fill="#FEFECE" filter="url(#fclxrgtue1bku)" height="48" id="Foo3" style="stroke:#A80036;stroke-width:1.5;" width="60" x="85" y="98"/><ellipse cx="100" cy="114" fill="#ADD1B2" rx="11" ry="11" style="stroke:#A80036;stroke-width:1.0;"/><path d="M102.4731,120.1431 Q101.8921,120.4419 101.2529,120.5913 Q100.6138,120.7407 99.9082,120.7407 Q97.4014,120.7407 96.0815,119.0889 Q94.7617,117.437 94.7617,114.3159 Q94.7617,111.1865 96.0815,109.5347 Q97.4014,107.8828 99.9082,107.8828 Q100.6138,107.8828 101.2612,108.0322 Q101.9087,108.1816 102.4731,108.4805 L102.4731,111.2031 Q101.8423,110.6221 101.2488,110.3523 Q100.6553,110.0825 100.0244,110.0825 Q98.6797,110.0825 97.9949,111.1492 Q97.3101,112.2158 97.3101,114.3159 Q97.3101,116.4077 97.9949,117.4744 Q98.6797,118.541 100.0244,118.541 Q100.6553,118.541 101.2488,118.2712 Q101.8423,118.0015 102.4731,117.4204 Z " fill="#000000"/><text fill="#000000" font-family="sans-serif" font-size="12" lengthAdjust="spacing" textLength="28" x="114" y="118.5352">Foo3</text><line style="stroke:#A80036;stroke-width:1.5;" x1="86" x2="144" y1="130" y2="130"/><line style="stroke:#A80036;stroke-width:1.5;" x1="86" x2="144" y1="138" y2="138"/><!--MD5=[95a4dfe5abdf1e4c27b368b02c055e14]
class Foo4--><rect fill="#FEFECE" filter="url(#fclxrgtue1bku)" height="48" id="Foo4" style="stroke:#A80036;stroke-width:1.5;" width="60" x="151" y="199"/><ellipse cx="166" cy="215" fill="#ADD1B2" rx="11" ry="11" style="stroke:#A80036;stroke-width:1.0;"/><path d="M168.4731,221.1431 Q167.8921,221.4419 167.2529,221.5913 Q166.6138,221.7407 165.9082,221.7407 Q163.4014,221.7407 162.0815,220.0889 Q160.7617,218.437 160.7617,215.3159 Q160.7617,212.1865 162.0815,210.5347 Q163.4014,208.8828 165.9082,208.8828 Q166.6138,208.8828 167.2612,209.0322 Q167.9087,209.1816 168.4731,209.4805 L168.4731,212.2031 Q167.8423,211.6221 167.2488,211.3523 Q166.6553,211.0825 166.0244,211.0825 Q164.6797,211.0825 163.9949,212.1492 Q163.3101,213.2158 163.3101,215.3159 Q163.3101,217.4077 163.9949,218.4744 Q164.6797,219.541 166.0244,219.541 Q166.6553,219.541 167.2488,219.2712 Q167.8423,219.0015 168.4731,218.4204 Z " fill="#000000"/><text fill="#000000" font-family="sans-serif" font-size="12" lengthAdjust="spacing" textLength="28" x="180" y="219.5352">Foo4</text><line style="stroke:#A80036;stroke-width:1.5;" x1="152" x2="210" y1="231" y2="231"/><line style="stroke:#A80036;stroke-width:1.5;" x1="152" x2="210" y1="239" y2="239"/><!--MD5=[2cd48abf51352d641837d0d5476a48a2]
class Foo5--><rect fill="#FEFECE" filter="url(#fclxrgtue1bku)" height="48" id="Foo5" style="stroke:#A80036;stroke-width:1.5;" width="60" x="217" y="284"/><ellipse cx="232" cy="300" fill="#ADD1B2" rx="11" ry="11" style="stroke:#A80036;stroke-width:1.0;"/><path d="M234.4731,306.1431 Q233.8921,306.4419 233.2529,306.5913 Q232.6138,306.7407 231.9082,306.7407 Q229.4014,306.7407 228.0815,305.0889 Q226.7617,303.437 226.7617,300.3159 Q226.7617,297.1865 228.0815,295.5347 Q229.4014,293.8828 231.9082,293.8828 Q232.6138,293.8828 233.2612,294.0322 Q233.9087,294.1816 234.4731,294.4805 L234.4731,297.2031 Q233.8423,296.6221 233.2488,296.3523 Q232.6553,296.0825 232.0244,296.0825 Q230.6797,296.0825 229.9949,297.1492 Q229.3101,298.2158 229.3101,300.3159 Q229.3101,302.4077 229.9949,303.4744 Q230.6797,304.541 232.0244,304.541 Q232.6553,304.541 233.2488,304.2712 Q233.8423,304.0015 234.4731,303.4204 Z " fill="#000000"/><text fill="#000000" font-family="sans-serif" font-size="12" lengthAdjust="spacing" textLength="28" x="246" y="304.5352">Foo5</text><line style="stroke:#A80036;stroke-width:1.5;" x1="218" x2="276" y1="316" y2="316"/><line style="stroke:#A80036;stroke-width:1.5;" x1="218" x2="276" y1="324" y2="324"/><path d="M117.9618,60.461 C102.1673,72.2713 82.8603,86.7081 67.0622,98.5211 " fill="none" style="stroke:#A80036;stroke-width:1.0;"/><polygon fill="#A80036" points="67.0622,98.5211,76.6654,96.3349,71.0665,95.5268,71.8746,89.928,67.0622,98.5211" style="stroke:#A80036;stroke-width:1.0;"/><path d="M138.8077,61.1201 C134.2687,72.5362 128.8052,86.2778 124.2575,97.716 " fill="none" style="stroke:#A80036;stroke-width:1.0;"/><polygon fill="#A80036" points="124.2575,97.716,131.2996,90.8306,126.1048,93.0698,123.8656,87.8749,124.2575,97.716" style="stroke:#A80036;stroke-width:1.0;"/><path d="M152.1795,61.3037 C158.5272,96.6969 170.527,163.605 176.8545,198.8855 " fill="none" style="stroke:#A80036;stroke-width:1.0;"/><polygon fill="#A80036" points="176.8545,198.8855,179.2029,189.3207,175.9718,193.964,171.3285,190.733,176.8545,198.8855" style="stroke:#A80036;stroke-width:1.0;"/><text fill="#000000" font-family="sans-serif" font-size="13" lengthAdjust="spacing" textLength="36" x="168" y="127.0684">test 4</text><path d="M178.0658,60.7563 C189.4664,70.926 201.4957,83.8203 209,98 C241.518,159.4438 246.7509,243.7174 247.2498,283.8869 " fill="none" style="stroke:#A80036;stroke-width:1.0;"/><polygon fill="#A80036" points="247.2498,283.8869,251.1377,274.8379,247.1877,278.8872,243.1383,274.9372,247.2498,283.8869" style="stroke:#A80036;stroke-width:1.0;"/><text fill="#000000" font-family="sans-serif" font-size="13" lengthAdjust="spacing" textLength="36" x="237" y="177.5684">test 5</text><!--MD5=[671c15aabc3b89c642b36e6b29f160b5]
@startuml

!pragma layout smetana
class Foo1

Foo1 - -> Foo2
Foo1 - -> Foo3
Foo1 - - -> Foo4 : test 4
Foo1 - - - -> Foo5 : test 5

@enduml

PlantUML version 1.2021.13(Mon Nov 01 12:38:45 CET 2021)
(GPL source distribution)
Java Runtime: Java(TM) SE Runtime Environment
JVM: Java HotSpot(TM) 64-Bit Server VM
Default Encoding: UTF-8
Language: en
Country: US
--></g></svg>