<?xml version="1.0" encoding="UTF-8" standalone="no"?><svg xmlns="http://www.w3.org/2000/svg" xmlns:xlink="http://www.w3.org/1999/xlink" contentScriptType="application/ecmascript" contentStyleType="text/css" height="251px" preserveAspectRatio="none" style="width:122px;height:251px;background:#FFFFFF;" version="1.1" viewBox="0 0 122 251" width="122px" zoomAndPan="magnify"><defs><filter height="300%" id="f1sot5so01sgmi" width="300%" x="-1" y="-1"><feGaussianBlur result="blurOut" stdDeviation="2.0"/><feColorMatrix in="blurOut" result="blurOut2" type="matrix" values="0 0 0 0 0 0 0 0 0 0 0 0 0 0 0 0 0 0 .4 0"/><feOffset dx="4.0" dy="4.0" in="blurOut2" result="blurOut3"/><feBlend in="SourceGraphic" in2="blurOut3" mode="normal"/></filter></defs><g><line style="stroke:#A80036;stroke-width:1.0;stroke-dasharray:5.0,5.0;" x1="27" x2="27" y1="88.4883" y2="167.1094"/><line style="stroke:#A80036;stroke-width:1.0;stroke-dasharray:5.0,5.0;" x1="99.5" x2="99.5" y1="88.4883" y2="167.1094"/><rect fill="#FEFECE" filter="url(#f1sot5so01sgmi)" height="30.4883" style="stroke:#A80036;stroke-width:1.5;" width="40" x="5" y="53"/><text fill="#000000" font-family="sans-serif" font-size="14" lengthAdjust="spacing" textLength="26" x="12" y="73.5352">Bob</text><rect fill="#FEFECE" filter="url(#f1sot5so01sgmi)" height="30.4883" style="stroke:#A80036;stroke-width:1.5;" width="40" x="5" y="166.1094"/><text fill="#000000" font-family="sans-serif" font-size="14" lengthAdjust="spacing" textLength="26" x="12" y="186.6445">Bob</text><text fill="#000000" font-family="sans-serif" font-size="14" lengthAdjust="spacing" textLength="33" x="80.5" y="85.5352">Alice</text><ellipse cx="100" cy="15" fill="#FEFECE" filter="url(#f1sot5so01sgmi)" rx="8" ry="8" style="stroke:#A80036;stroke-width:2.0;"/><path d="M100,23 L100,50 M87,31 L113,31 M100,50 L87,65 M100,50 L113,65 " fill="none" filter="url(#f1sot5so01sgmi)" style="stroke:#A80036;stroke-width:2.0;"/><text fill="#000000" font-family="sans-serif" font-size="14" lengthAdjust="spacing" textLength="33" x="80.5" y="179.6445">Alice</text><ellipse cx="100" cy="192.5977" fill="#FEFECE" filter="url(#f1sot5so01sgmi)" rx="8" ry="8" style="stroke:#A80036;stroke-width:2.0;"/><path d="M100,200.5977 L100,227.5977 M87,208.5977 L113,208.5977 M100,227.5977 L87,242.5977 M100,227.5977 L113,242.5977 " fill="none" filter="url(#f1sot5so01sgmi)" style="stroke:#A80036;stroke-width:2.0;"/><polygon fill="#A80036" points="88,115.7988,98,119.7988,88,123.7988,92,119.7988" style="stroke:#A80036;stroke-width:1.0;"/><line style="stroke:#A80036;stroke-width:1.0;" x1="27" x2="94" y1="119.7988" y2="119.7988"/><text fill="#000000" font-family="sans-serif" font-size="13" lengthAdjust="spacing" textLength="31" x="34" y="115.0566">hello</text><polygon fill="#A80036" points="38,145.1094,28,149.1094,38,153.1094,34,149.1094" style="stroke:#A80036;stroke-width:1.0;"/><line style="stroke:#A80036;stroke-width:1.0;" x1="32" x2="99" y1="149.1094" y2="149.1094"/><text fill="#000000" font-family="sans-serif" font-size="13" lengthAdjust="spacing" textLength="49" x="44" y="144.3672">Is it ok?</text><!--MD5=[cc61b81bb2f14a7431da68162b4b99d8]
@startuml

participant Bob
actor Alice
 
Bob -> Alice : hello
Alice -> Bob : Is it ok?

@enduml

PlantUML version 1.2021.13(Mon Nov 01 12:38:45 CET 2021)
(GPL source distribution)
Java Runtime: Java(TM) SE Runtime Environment
JVM: Java HotSpot(TM) 64-Bit Server VM
Default Encoding: UTF-8
Language: en
Country: US
--></g></svg>