<?xml version="1.0" encoding="UTF-8" standalone="no"?><svg xmlns="http://www.w3.org/2000/svg" xmlns:xlink="http://www.w3.org/1999/xlink" contentScriptType="application/ecmascript" contentStyleType="text/css" height="356px" preserveAspectRatio="none" style="width:289px;height:356px;" version="1.1" viewBox="0 0 289 356" width="289px" zoomAndPan="magnify"><defs><filter height="300%" id="f8ic8d7qintqp" width="300%" x="-1" y="-1"><feGaussianBlur result="blurOut" stdDeviation="2.0"/><feColorMatrix in="blurOut" result="blurOut2" type="matrix" values="0 0 0 0 0 0 0 0 0 0 0 0 0 0 0 0 0 0 .4 0"/><feOffset dx="4.0" dy="4.0" in="blurOut2" result="blurOut3"/><feBlend in="SourceGraphic" in2="blurOut3" mode="normal"/></filter></defs><g><!--MD5=[4272a0a1957754cd214430d460c5f4ca]
class Foo1--><rect fill="#FEFECE" filter="url(#f8ic8d7qintqp)" height="48" id="Foo1" style="stroke: #A80036; stroke-width: 1.5;" width="60" x="111" y="18"/><ellipse cx="126" cy="34" fill="#ADD1B2" rx="11" ry="11" style="stroke: #A80036; stroke-width: 1.0;"/><path d="M128.4731,40.1431 Q127.8921,40.4419 127.2529,40.5913 Q126.6138,40.7407 125.9082,40.7407 Q123.4014,40.7407 122.0815,39.0889 Q120.7617,37.437 120.7617,34.3159 Q120.7617,31.1865 122.0815,29.5347 Q123.4014,27.8828 125.9082,27.8828 Q126.6138,27.8828 127.2612,28.0322 Q127.9087,28.1816 128.4731,28.4805 L128.4731,31.2031 Q127.8423,30.6221 127.2488,30.3523 Q126.6553,30.0825 126.0244,30.0825 Q124.6797,30.0825 123.9949,31.1492 Q123.3101,32.2158 123.3101,34.3159 Q123.3101,36.4077 123.9949,37.4744 Q124.6797,38.541 126.0244,38.541 Q126.6553,38.541 127.2488,38.2712 Q127.8423,38.0015 128.4731,37.4204 Z "/><text fill="#000000" font-family="sans-serif" font-size="12" lengthAdjust="spacingAndGlyphs" textLength="28" x="140" y="38.5352">Foo1</text><line style="stroke: #A80036; stroke-width: 1.5;" x1="112" x2="170" y1="50" y2="50"/><line style="stroke: #A80036; stroke-width: 1.5;" x1="112" x2="170" y1="58" y2="58"/><!--MD5=[6c8c18b8d4fa3298c600fc3f82908513]
class Foo2--><rect fill="#FEFECE" filter="url(#f8ic8d7qintqp)" height="48" id="Foo2" style="stroke: #A80036; stroke-width: 1.5;" width="60" x="0" y="103"/><ellipse cx="15" cy="119" fill="#ADD1B2" rx="11" ry="11" style="stroke: #A80036; stroke-width: 1.0;"/><path d="M17.4731,125.1431 Q16.8921,125.4419 16.2529,125.5913 Q15.6138,125.7407 14.9082,125.7407 Q12.4014,125.7407 11.0815,124.0889 Q9.7617,122.437 9.7617,119.3159 Q9.7617,116.1865 11.0815,114.5347 Q12.4014,112.8828 14.9082,112.8828 Q15.6138,112.8828 16.2612,113.0322 Q16.9087,113.1816 17.4731,113.4805 L17.4731,116.2031 Q16.8423,115.6221 16.2488,115.3523 Q15.6553,115.0825 15.0244,115.0825 Q13.6797,115.0825 12.9949,116.1492 Q12.3101,117.2158 12.3101,119.3159 Q12.3101,121.4077 12.9949,122.4744 Q13.6797,123.541 15.0244,123.541 Q15.6553,123.541 16.2488,123.2712 Q16.8423,123.0015 17.4731,122.4204 Z "/><text fill="#000000" font-family="sans-serif" font-size="12" lengthAdjust="spacingAndGlyphs" textLength="28" x="29" y="123.5352">Foo2</text><line style="stroke: #A80036; stroke-width: 1.5;" x1="1" x2="59" y1="135" y2="135"/><line style="stroke: #A80036; stroke-width: 1.5;" x1="1" x2="59" y1="143" y2="143"/><!--MD5=[e6aa49c8b985d0d5df1684838eeee910]
class Foo3--><rect fill="#FEFECE" filter="url(#f8ic8d7qintqp)" height="48" id="Foo3" style="stroke: #A80036; stroke-width: 1.5;" width="60" x="78" y="103"/><ellipse cx="93" cy="119" fill="#ADD1B2" rx="11" ry="11" style="stroke: #A80036; stroke-width: 1.0;"/><path d="M95.4731,125.1431 Q94.8921,125.4419 94.2529,125.5913 Q93.6138,125.7407 92.9082,125.7407 Q90.4014,125.7407 89.0815,124.0889 Q87.7617,122.437 87.7617,119.3159 Q87.7617,116.1865 89.0815,114.5347 Q90.4014,112.8828 92.9082,112.8828 Q93.6138,112.8828 94.2612,113.0322 Q94.9087,113.1816 95.4731,113.4805 L95.4731,116.2031 Q94.8423,115.6221 94.2488,115.3523 Q93.6553,115.0825 93.0244,115.0825 Q91.6797,115.0825 90.9949,116.1492 Q90.3101,117.2158 90.3101,119.3159 Q90.3101,121.4077 90.9949,122.4744 Q91.6797,123.541 93.0244,123.541 Q93.6553,123.541 94.2488,123.2712 Q94.8423,123.0015 95.4731,122.4204 Z "/><text fill="#000000" font-family="sans-serif" font-size="12" lengthAdjust="spacingAndGlyphs" textLength="28" x="107" y="123.5352">Foo3</text><line style="stroke: #A80036; stroke-width: 1.5;" x1="79" x2="137" y1="135" y2="135"/><line style="stroke: #A80036; stroke-width: 1.5;" x1="79" x2="137" y1="143" y2="143"/><!--MD5=[95a4dfe5abdf1e4c27b368b02c055e14]
class Foo4--><rect fill="#FEFECE" filter="url(#f8ic8d7qintqp)" height="48" id="Foo4" style="stroke: #A80036; stroke-width: 1.5;" width="60" x="144" y="204"/><ellipse cx="159" cy="220" fill="#ADD1B2" rx="11" ry="11" style="stroke: #A80036; stroke-width: 1.0;"/><path d="M161.4731,226.1431 Q160.8921,226.4419 160.2529,226.5913 Q159.6138,226.7407 158.9082,226.7407 Q156.4014,226.7407 155.0815,225.0889 Q153.7617,223.437 153.7617,220.3159 Q153.7617,217.1865 155.0815,215.5347 Q156.4014,213.8828 158.9082,213.8828 Q159.6138,213.8828 160.2612,214.0322 Q160.9087,214.1816 161.4731,214.4805 L161.4731,217.2031 Q160.8423,216.6221 160.2488,216.3523 Q159.6553,216.0825 159.0244,216.0825 Q157.6797,216.0825 156.9949,217.1492 Q156.3101,218.2158 156.3101,220.3159 Q156.3101,222.4077 156.9949,223.4744 Q157.6797,224.541 159.0244,224.541 Q159.6553,224.541 160.2488,224.2712 Q160.8423,224.0015 161.4731,223.4204 Z "/><text fill="#000000" font-family="sans-serif" font-size="12" lengthAdjust="spacingAndGlyphs" textLength="28" x="173" y="224.5352">Foo4</text><line style="stroke: #A80036; stroke-width: 1.5;" x1="145" x2="203" y1="236" y2="236"/><line style="stroke: #A80036; stroke-width: 1.5;" x1="145" x2="203" y1="244" y2="244"/><!--MD5=[2cd48abf51352d641837d0d5476a48a2]
class Foo5--><rect fill="#FEFECE" filter="url(#f8ic8d7qintqp)" height="48" id="Foo5" style="stroke: #A80036; stroke-width: 1.5;" width="60" x="210" y="289"/><ellipse cx="225" cy="305" fill="#ADD1B2" rx="11" ry="11" style="stroke: #A80036; stroke-width: 1.0;"/><path d="M227.4731,311.1431 Q226.8921,311.4419 226.2529,311.5913 Q225.6138,311.7407 224.9082,311.7407 Q222.4014,311.7407 221.0815,310.0889 Q219.7617,308.437 219.7617,305.3159 Q219.7617,302.1865 221.0815,300.5347 Q222.4014,298.8828 224.9082,298.8828 Q225.6138,298.8828 226.2612,299.0322 Q226.9087,299.1816 227.4731,299.4805 L227.4731,302.2031 Q226.8423,301.6221 226.2488,301.3523 Q225.6553,301.0825 225.0244,301.0825 Q223.6797,301.0825 222.9949,302.1492 Q222.3101,303.2158 222.3101,305.3159 Q222.3101,307.4077 222.9949,308.4744 Q223.6797,309.541 225.0244,309.541 Q225.6553,309.541 226.2488,309.2712 Q226.8423,309.0015 227.4731,308.4204 Z "/><text fill="#000000" font-family="sans-serif" font-size="12" lengthAdjust="spacingAndGlyphs" textLength="28" x="239" y="309.5352">Foo5</text><line style="stroke: #A80036; stroke-width: 1.5;" x1="211" x2="269" y1="321" y2="321"/><line style="stroke: #A80036; stroke-width: 1.5;" x1="211" x2="269" y1="329" y2="329"/><path d="M110.9618,65.461 C95.1673,77.2713 75.8603,91.7081 60.0622,103.5211 " fill="none" style="stroke: #A80036; stroke-width: 1.0;"/><path d="M131.8077,66.1201 C127.2687,77.5362 121.8052,91.2778 117.2575,102.716 " fill="none" style="stroke: #A80036; stroke-width: 1.0;"/><path d="M145.1795,66.3037 C151.5272,101.6969 163.527,168.605 169.8545,203.8855 " fill="none" style="stroke: #A80036; stroke-width: 1.0;"/><text fill="#000000" font-family="sans-serif" font-size="13" lengthAdjust="spacingAndGlyphs" textLength="36" x="161" y="132.0684">test 4</text><path d="M171.0658,65.7563 C182.4664,75.926 194.4957,88.8203 202,103 C234.518,164.4438 239.7509,248.7174 240.2498,288.8869 " fill="none" style="stroke: #A80036; stroke-width: 1.0;"/><text fill="#000000" font-family="sans-serif" font-size="13" lengthAdjust="spacingAndGlyphs" textLength="36" x="230" y="182.5684">test 5</text><!--MD5=[a945cd4f4ddf41e916654d9250e6728a]
@startuml

!pragma graphviz_dot jdot
class Foo1

Foo1 - -> Foo2
Foo1 - -> Foo3
Foo1 - - -> Foo4 : test 4
Foo1 - - - -> Foo5 : test 5

@enduml

PlantUML version 1.2020.15(Sun Jun 28 13:39:45 CEST 2020)
(GPL source distribution)
Java Runtime: Java(TM) SE Runtime Environment
JVM: Java HotSpot(TM) 64-Bit Server VM
Default Encoding: UTF-8
Language: en
Country: GB
--></g></svg>